<svg xmlns="http://www.w3.org/2000/svg" xmlns:xlink="http://www.w3.org/1999/xlink" width="{{ layout.width }}" height="20">
  <defs>
    <linearGradient id="smooth" x2="0" y2="100%">
      <stop offset="0" stop-color="#bbb" stop-opacity="0.1"/>
      <stop offset="1" stop-opacity="0.1"/>
    </linearGradient>
    {% for badge in layout.badges %}
    <mask id="mask-{{ loop.index }}">
      <rect width="{{ badge.width }}" height="20" rx="3" fill="#fff"/>
    </mask>
    {% endfor %}
    <!-- Browser icons from Font Awesome by Dave Gandy -->
    <!-- http://fontawesome.io via http://icomoon.io -->
    <symbol id="android" viewBox="0 0 512 512">
      <path d="M448 192c-17.6 0-32 14.4-32 32v128c0 17.6 14.4 32 32 32s32-14.4 32-32V224c0-17.6-14.4-32-32-32zm-384 0c-17.6 0-32 14.4-32 32v128c0 17.6 14.4 32 32 32s32-14.4 32-32V224c0-17.6-14.4-32-32-32zm48 176c0 26.51 21.49 48 48 48v64c0 17.6 14.4 32 32 32s32-14.4 32-32v-64h64v64c0 17.6 14.4 32 32 32s32-14.4 32-32v-64c26.51 0 48-21.49 48-48V192H112v176zm287.108-208c-4.858-43.94-29.502-81.895-64.81-104.822l16.012-32.023c3.952-7.903.748-17.514-7.155-21.466S325.64.94 321.69 8.842l-16.072 32.143-4.175-1.658C287.16 34.58 271.883 32 256 32c-15.88 0-31.158 2.58-45.444 7.328l-4.174 1.658-16.07-32.14C186.358.94 176.746-2.262 168.844 1.688c-7.904 3.95-11.107 13.562-7.156 21.465l16.01 32.023c-35.308 22.926-59.952 60.88-64.81 104.822v16H400v-16h-.892zM208 128c-8.837 0-16-7.164-16-16 0-8.824 7.144-15.98 15.965-15.998h.073c8.82.02 15.962 7.175 15.962 15.998 0 8.836-7.163 16-16 16zm96 0c-8.837 0-16-7.164-16-16 0-8.823 7.143-15.977 15.962-15.998h.073c8.82.02 15.965 7.174 15.965 15.998 0 8.836-7.163 16-16 16z"/>
    </symbol>
    <symbol id="firefox" viewBox="0 0 448 448">
      <path d="M225.75 448q-70.75 0-126.125-37.625t-82.375-99.625q-14.5-32.75-16.75-75.25t6.5-83.125 27.75-78 44.75-60.625l-2.75 70.25q2.75-3.5 17-3.875t17.5 3.875q10.5-20.25 40.125-34.5t58.625-14.75q-13.5 11.25-29.875 37.125t-14.625 40.875q6.25 2 15.625 3.375t15.75 1.875 17 1 12.625 0.75q3.75 1.25 2.375 11.375t-7.625 18.875q-1.25 1.75-4.125 4.625t-14.125 8.875-25.25 8.5l3.75 47.25-34.75-16.75q-4.5 10.75-1.875 20.375t9 16.625 16.375 10.375 20.25 1.625q12.75-2.25 24.5-8.625t20.875-11.25 18.375-4.375q15.25 1 22.375 8.25t4.875 16.25q-0.25 0.5-0.625 1.375t-2.125 3.125-4.5 3.875-7.875 2.625-11.625 0.25q-15 23.75-36.125 33.875t-52.375 7.375q18.5 15.25 40.625 20.625t42.125 1.5 38.625-13 32-21.875 20.125-26q10.75-22.75 9.75-48.125t-9.375-47.125-19.625-31.25q21.75 9.5 34.25 19.875t19.25 28.125q3.75-42.5-14.375-85.75t-52.375-71q66.25 19.25 103 69.875t37.75 129.375q0.5 31.75-10.125 63.75t-30.875 59.5-47.25 49-61.875 33.875-72.125 12.375z"></path>
    </symbol>
    <symbol id="googlechrome" viewBox="0 0 448 448">
      <path d="M223.25 0q60-0.5 112.75 30 58 33.5 88 93l-185.5-9.75q-40-2.25-73.5 18.625t-46.25 57.375l-69-106q32-39.75 77.75-61.375t95.75-21.875zM36.5 101.25l84.25 165.75q18 35.75 52.75 54.25t73.25 11.25l-57.5 112.75q-53-8.25-96.25-39.375t-68.125-79-24.875-102.875q0-66.75 36.5-122.75zM433 143.5q14.5 37.5 14.875 77.625t-12.125 76.5-38.25 68-61.5 52.375q-57.5 33.25-124.5 29.75l101.25-155.75q22-32.75 20.625-72.625t-26.625-69.375zM224 148.5q31.25 0 53.375 22.125t22.125 53.375-22.125 53.375-53.375 22.125-53.375-22.125-22.125-53.375 22.125-53.375 53.375-22.125z"></path>
    </symbol>
    <symbol id="iexplore" viewBox="0 0 448 448">
      <path d="M448 234.25q0 14-1.75 26h-287.75q0 36.5 27.375 61.125t64.375 24.625q24.75 0 46.375-11.625t34.125-32.625h105.75q-14 39.75-42.625 70.25t-66.875 47.125-80.25 16.625q-46.75 0-89-20.75-57 29-98.5 29-59.25 0-59.25-65.75 0-28.75 11.25-68.75 4.25-15 27.25-57.25 49.75-90 118.75-151.5-46 19.75-106.75 88.5 15.75-68.5 70.875-112.375t125.375-43.875q7.5 0 11.25 0.25 63.75-29.25 108.25-29.25 16 0 29 3.25t23.625 10.125 16.625 19.125 6 28.75q0 29-18.75 71.5 25.25 45.5 25.25 97.5zM430.5 74.25q0-20.75-13.25-33t-34.25-12.25q-27 0-63.5 17.5 30.25 11.75 55.625 32.875t42.625 48.875q12.75-33.75 12.75-54zM32 383.5q0 21.5 12.125 33.125t33.625 11.625q28.75 0 66.5-20.75-30.5-18-53.375-45.75t-34.375-61.25q-24.5 51.25-24.5 83zM158 205.25h182q-1.25-35.5-28.25-59.25t-62.75-23.75q-36 0-62.875 23.75t-28.125 59.25z"></path>
    </symbol>
    <symbol id="microsoftedge" viewBox="0 0 448 448">
      <path d="M17.25 198.75h0.25q4-31.5 14.625-60.375t28.75-54.25 41.875-44 55.875-29.375 69.125-10.75q57.75 0 103.5 26.375t73.5 75.875q26 46.75 26 110.5v47h-281.25q0.25 27.75 13.375 48.125t34.125 30.625 47.375 14.25 53.25 0.75 52-11.625 43.375-21.125v94.25q-23 13.75-57.375 23t-78.125 9.5-79-13.25q-47.25-18.25-77.875-62.25t-31.125-93q-0.75-60.5 27.75-103t81.25-67q-12 15-19.5 31.375t-11.5 39.875h158.75q2-19.25-2-35t-11.75-25.375-17.625-16.625-20.125-10.25-18.75-5.125-14-2.125l-5.5-0.25q-33.75 1.25-64.875 11.125t-55.875 26.125-44 35.125-34.5 40.875z"></path>
    </symbol>
    <symbol id="opera" viewBox="0 0 448 448">
      <path d="M373.25 57q-41.25-27.5-89.75-27.5-38.75 0-73.25 18.25t-60 50q-18.75 23.25-29.875 54.5t-12.125 66.5v10.5q1 35.25 12.125 66.5t29.875 54.5q25.5 31.75 60 50t73.25 18.25q48.5 0 89.75-27.5-30.25 27-68.625 42t-80.625 15q-7.25 0-10.75-0.25-43.75-2-83.25-20.5t-68-48.25-45.25-70.25-16.75-84.75q0-45.5 17.75-87t47.75-71.5 71.5-47.75 87-17.75h0.75q42 0.25 80.125 15.125t68.375 41.875zM448 224q0 48-19.25 90.625t-53.25 74.125q-26 15.75-55.5 15.75-34.25 0-63.75-21 38.5-14 63.375-58.25t24.875-101.25q0-56.75-24.75-101t-63.25-58.5q29.75-20.75 63.5-20.75 29.75 0 56.5 16.25 33.75 31.25 52.625 73.75t18.875 90.25z"></path>
    </symbol>
    <symbol id="safari" viewBox="0 0 448 448">
      <path d="M237.25 223.25q0 6.5-4.125 11.25t-10.375 4.75q-6.5 0-11.25-4.125t-4.75-10.375q0-6.5 4.25-11.25t10.5-4.75 11 4.125 4.75 10.375zM241 237.75l87.5-145.25q-2.25 2-16.875 15.625t-31.375 29.125-34.125 31.75-29.25 27.625-12.625 12.875l-87.25 145q1.75-1.75 16.75-15.5t31.5-29.125 34-31.75 29.25-27.75 12.5-12.625zM402.75 224q0 50.25-26 92.75-0.75-0.5-4.25-2.75t-6.625-4.125-4.125-1.875q-3.25 0-3.25 3.25 0 2.5 14.75 11-18.5 28-46.125 47.625t-60.375 27.625l-4-16.75q-0.25-2.5-3.75-2.5-1.25 0-2 1.375t-0.5 2.375l4 17q-18 3.75-36.5 3.75-49.75 0-93-26.25 0.25-0.5 3.25-5.125t5.375-8.375 2.375-4.75q0-3.25-3.25-3.25-1.5 0-4.25 3.625t-5.625 8.625-3.375 5.75q-28.25-18.75-48-46.875t-27.5-61.125l17.25-3.75q2.5-0.75 2.5-3.75 0-1.25-1.375-2t-2.625-0.5l-17 3.75q-3.5-18-3.5-34.75 0-51.5 27.25-94.75 0.5 0.25 4.625 3t7.5 4.75 4.375 2q3.25 0 3.25-3 0-1.5-3.125-3.875t-8.125-5.375l-5-3q19.25-28 47.25-47.25t61-26.75l3.75 16.75q0.5 2.5 3.75 2.5 1.25 0 2-1.375t0.5-2.625l-3.75-16.5q17.75-3.25 33.5-3.25 51 0 94.75 27.25-9.75 14-9.75 16.25 0 3.25 3 3.25 2.75 0 12-16 27.75 18.75 46.875 46.5t26.875 60.25l-14 3q-2.5 0.5-2.5 4 0 1.25 1.375 2t2.375 0.5l14.25-3.25q3.5 18 3.5 35zM424 224q0-40.75-15.875-77.75t-42.625-63.75-63.75-42.625-77.75-15.875-77.75 15.875-63.75 42.625-42.625 63.75-15.875 77.75 15.875 77.75 42.625 63.75 63.75 42.625 77.75 15.875 77.75-15.875 63.75-42.625 42.625-63.75 15.875-77.75zM448 224q0 45.5-17.75 87t-47.75 71.5-71.5 47.75-87 17.75-87-17.75-71.5-47.75-47.75-71.5-17.75-87 17.75-87 47.75-71.5 71.5-47.75 87-17.75 87 17.75 71.5 47.75 47.75 71.5 17.75 87z"></path>
    </symbol>
  </defs>
  <g fill="#fff" text-anchor="middle" font-family="DejaVu Sans,Verdana,Geneva,sans-serif" font-size="11">
    {% for badge in layout.badges %}
    <g transform="translate({{ badge.translate }}, 0)" mask="url(#mask-{{ loop.index }})">
      <g transform="translate({{ badge.label.translate }}, 0)">
        <rect width="{{ badge.label.width }}" height="20" fill="#555"/>
        <rect width="{{ badge.label.width }}" height="20" fill="url(#smooth)"/>
        {% if badge.label.logo %}
        <use xlink:href="{{ badge.label.logo }}" x="5" y="4" width="14" height="14" style="fill: #010101; fill-opacity: 0.3"/>
        <use xlink:href="{{ badge.label.logo }}" x="5" y="3" width="14" height="14" style="fill: #bbb"/>
        {% endif %}
        {% if badge.label.text %}
        <text x="{{ badge.label.x }}" y="15" fill="#010101" fill-opacity="0.3">{{ badge.label.text }}</text>
        <text x="{{ badge.label.x }}" y="14">{{ badge.label.text }}</text>
        {% endif %}
      </g>
      {% for browser in badge.versions %}
      <g transform="translate({{ browser.translate }}, 0)">
        <rect width="{{ browser.width }}" height="20" fill="{{ browser.fill }}"/>
        {% if browser.divider == "line" %}
          {% if not loop.first %}
          <line x1="0.5" x2="0.5" y1="0" y2="20"
            stroke-width="1" stroke="#fff" stroke-opacity="0.3"/>
          {% endif %}
          {% if not loop.last %}
          <line x1="{{ browser.width - 0.5 }}" x2="{{ browser.width - 0.5 }}" y1="0" y2="20"
            stroke-width="1" stroke="#010101" stroke-opacity="0.1"/>
          {% endif %}
        {% endif %}
        <rect width="{{ browser.width }}" height="20" fill="url(#smooth)"/>
        <text x="{{ browser.x }}" y="15" fill="#010101" fill-opacity="0.3">{{ browser.text }}</text>
        <text x="{{ browser.x }}" y="14">{{ browser.text }}</text>
      </g>
      {% endfor %}
    </g>
    {% endfor %}
  </g>
</svg>
